<svg width="33" height="22" viewBox="0 0 33 22" fill="none" xmlns="http://www.w3.org/2000/svg">
<path d="M27.2315 12.6558H1.93986C1.46764 12.6558 1.0718 12.4957 0.75236 12.1754C0.432916 11.8552 0.273193 11.4584 0.273193 10.985C0.273193 10.5116 0.432916 10.1148 0.75236 9.79462C1.0718 9.47439 1.46764 9.31428 1.93986 9.31428H27.2315L20.7732 2.79838C20.4676 2.49207 20.3079 2.10919 20.294 1.64974C20.2801 1.19028 20.4399 0.793482 20.7732 0.459333C21.0787 0.15303 21.4676 -0.00012207 21.9399 -0.00012207C22.4121 -0.00012207 22.801 0.15303 23.1065 0.459333L32.4399 9.8155C32.6065 9.98258 32.7246 10.1636 32.794 10.3585C32.8635 10.5534 32.8982 10.7623 32.8982 10.985C32.8982 11.2078 32.8635 11.4166 32.794 11.6116C32.7246 11.8065 32.6065 11.9875 32.4399 12.1545L23.1065 21.5107C22.801 21.817 22.419 21.9702 21.9607 21.9702C21.5024 21.9702 21.1065 21.817 20.7732 21.5107C20.4399 21.1766 20.2732 20.7798 20.2732 20.3203C20.2732 19.8609 20.4399 19.4641 20.7732 19.1299L27.2315 12.6558Z" fill="white"/>
</svg>
