<svg width="24" height="14" viewBox="0 0 24 14" fill="none" xmlns="http://www.w3.org/2000/svg">
<path d="M12 5.27998L4.19998 13.08C3.83331 13.4466 3.36664 13.63 2.79998 13.63C2.23331 13.63 1.76664 13.4466 1.39998 13.08C1.03331 12.7133 0.849976 12.2466 0.849976 11.68C0.849976 11.1133 1.03331 10.6466 1.39998 10.28L10.6 1.07998C11 0.67998 11.4666 0.47998 12 0.47998C12.5333 0.47998 13 0.67998 13.4 1.07998L22.6 10.28C22.9666 10.6466 23.15 11.1133 23.15 11.68C23.15 12.2466 22.9666 12.7133 22.6 13.08C22.2333 13.4466 21.7666 13.63 21.2 13.63C20.6333 13.63 20.1666 13.4466 19.8 13.08L12 5.27998Z" fill="#EB51C2"/>
</svg>
