<svg width="7" height="13" viewBox="0 0 7 13" fill="none" xmlns="http://www.w3.org/2000/svg">
<path d="M4.175 6.55886L0.275 2.64931C0.0916667 2.46553 0 2.23163 0 1.9476C0 1.66357 0.0916667 1.42967 0.275 1.24589C0.458333 1.06211 0.691667 0.970215 0.975 0.970215C1.25833 0.970215 1.49167 1.06211 1.675 1.24589L6.275 5.85714C6.375 5.95739 6.44583 6.06599 6.4875 6.18294C6.52917 6.29989 6.55 6.4252 6.55 6.55886C6.55 6.69251 6.52917 6.81782 6.4875 6.93477C6.44583 7.05172 6.375 7.16032 6.275 7.26057L1.675 11.8718C1.49167 12.0556 1.25833 12.1475 0.975 12.1475C0.691667 12.1475 0.458333 12.0556 0.275 11.8718C0.0916667 11.688 0 11.4541 0 11.1701C0 10.8861 0.0916667 10.6522 0.275 10.4684L4.175 6.55886Z" fill="#EB51C2"/>
</svg>
